<svg width="24" height="24" viewBox="0 0 24 24" fill="none" xmlns="http://www.w3.org/2000/svg">
<path fill-rule="evenodd" clip-rule="evenodd" d="M3.91078 13.0041C4.46086 12.9547 4.94676 13.3607 4.99607 13.9108C5.04539 14.4609 4.63943 14.9468 4.08936 14.9961C3.80449 15.0216 3.52387 15.0673 3.23407 15.1372L2.94072 15.2153C2.4429 15.342 2.14282 15.5367 2.0617 15.7584C1.97948 15.982 1.97948 16.2572 2.06259 16.4838C2.10835 16.6092 2.40746 16.8327 3.03465 17.0598C3.55393 17.2479 3.82243 17.8213 3.63437 18.3406C3.4463 18.8599 2.87289 19.1284 2.35361 18.9403C1.22496 18.5315 0.476742 17.9726 0.184296 17.1708C-0.0613855 16.501 -0.0613855 15.7371 0.184017 15.0697C0.51849 14.1555 1.26632 13.6239 2.20859 13.3429L2.41341 13.2864C2.90168 13.1436 3.4022 13.0496 3.91078 13.0041ZM19.9726 13.0003L20.0894 13.0041C20.4962 13.0405 20.8979 13.108 21.2747 13.2018L21.5524 13.2771C22.6243 13.5498 23.4571 14.0899 23.8168 15.0698C24.0611 15.7378 24.0611 16.5003 23.8167 17.1701C23.4597 18.1456 22.6415 18.678 21.5642 18.9661C21.0307 19.1088 20.4825 18.7919 20.3398 18.2584C20.1971 17.7249 20.514 17.1767 21.0475 17.034C21.5589 16.8973 21.8581 16.7026 21.9382 16.4837C22.0206 16.2578 22.0206 15.9814 21.9389 15.7579C21.8578 15.5369 21.5573 15.3421 21.0251 15.206C20.6627 15.1 20.2905 15.0301 19.9108 14.9961C19.3607 14.9468 18.9547 14.4608 19.0041 13.9108C19.0499 13.4 19.4721 13.0135 19.9726 13.0003ZM12 14.0001C7.51861 14.0001 5.00007 15.2593 5.00007 18.0001C5.00007 20.7408 7.51861 22.0001 12 22.0001C16.4815 22.0001 19.0001 20.7408 19.0001 18.0001C19.0001 15.2593 16.4815 14.0001 12 14.0001ZM12 16.0001C15.5186 16.0001 17.0001 16.7408 17.0001 18.0001C17.0001 19.2594 15.5186 20.0001 12 20.0001C8.48146 20.0001 7.00007 19.2594 7.00007 18.0001C7.00007 16.7408 8.48146 16.0001 12 16.0001Z" fill="#391484"/>
<g opacity="0.5">
<path fill-rule="evenodd" clip-rule="evenodd" d="M12 2C9.22772 2 7 4.22748 7 6.99953C7 9.77235 9.22754 12 12 12C14.7725 12 17 9.77237 17 6.99953C17 4.22746 14.7723 2 12 2ZM12 4C13.6678 4 15 5.33209 15 6.99953C15 8.66782 13.6679 10 12 10C10.3321 10 9 8.66781 9 6.99953C9 5.3321 10.3322 4 12 4ZM5 4C5.55228 4 6 4.44772 6 5C6 5.55228 5.55228 6 5 6C3.89573 6 3 6.89562 3 8C3 9.05418 3.81615 9.91815 4.85077 9.99451L5 10C5.55228 10 6 10.4477 6 11C6 11.5523 5.55228 12 5 12C2.79121 12 1 10.209 1 8C1 5.791 2.79121 4 5 4ZM19 4C21.2088 4 23 5.79098 23 8C23 10.209 21.2088 12 19 12C18.4477 12 18 11.5523 18 11C18 10.4872 18.386 10.0645 18.8834 10.0067L19 10C20.1043 10 21 9.1044 21 8C21 6.8956 20.1043 6 19 6C18.4477 6 18 5.55228 18 5C18 4.44772 18.4477 4 19 4Z" fill="#391484"/>
</g>
</svg>
