<svg width="24" height="24" viewBox="0 0 24 24" fill="none" xmlns="http://www.w3.org/2000/svg">
<path fill-rule="evenodd" clip-rule="evenodd" d="M16.9 6.00004C16.4376 3.71812 14.4236 2.00004 12.0084 2.00004C10.6847 1.99446 9.40935 2.51909 8.46865 3.45777C7.76775 4.15718 7.29568 5.0435 7.10074 6.00004H6.94868C5.00651 6.00004 3.36365 7.37537 2.90605 9.74296L2.12247 15.5601C1.42706 20.0037 3.64497 22 7.84142 22H16.1493C20.0414 22 22.4219 19.764 21.9366 15.7955L21.1304 9.79951C20.5796 7.38533 18.9812 6.00004 17.0785 6.00004H16.9ZM14.8297 6.00004C14.4188 4.83466 13.3097 4.00004 12.0042 4.00004C11.209 3.99668 10.4451 4.31092 9.88134 4.8735C9.56027 5.19389 9.31916 5.5798 9.171 6.00004H14.8297ZM7.99991 8.00004H6.94868C5.97071 8.00004 5.14658 8.68996 4.87896 10.0659L4.10154 15.8479C3.61423 18.9628 4.76659 20 7.84142 20H16.1493C18.9761 20 20.3479 18.667 19.9225 15.8265L19.1647 10.1568C18.832 8.70997 18.0129 8.00004 17.0785 8.00004H15.9999H7.99991Z" fill="#391484"/>
<g opacity="0.5">
<path fill-rule="evenodd" clip-rule="evenodd" d="M9 12C9.55228 12 10 11.5523 10 11C10 10.4477 9.55228 10 9 10C8.44772 10 8 10.4477 8 11C8 11.5523 8.44772 12 9 12ZM15 12C15.5523 12 16 11.5523 16 11C16 10.4477 15.5523 10 15 10C14.4477 10 14 10.4477 14 11C14 11.5523 14.4477 12 15 12Z" fill="#391484"/>
</g>
</svg>
