<svg width="24" height="24" viewBox="0 0 24 24" fill="none" xmlns="http://www.w3.org/2000/svg">
<path fill-rule="evenodd" clip-rule="evenodd" d="M20.5567 13.2767C20.0903 13.1421 19.591 13.0485 19.0881 13.0041L18.9713 13.0005C18.4708 13.0142 18.0491 13.4013 18.0039 13.9121C17.9552 14.4622 18.3618 14.9476 18.9119 14.9963C19.2865 15.0294 19.6596 15.0993 20.0298 15.2059C20.5576 15.3427 20.858 15.5378 20.9387 15.7579C21.0205 15.9816 21.0205 16.2582 20.9384 16.4827C20.8582 16.7023 20.5581 16.8977 20.048 17.0341C19.5145 17.1768 19.1976 17.7249 19.3403 18.2585C19.4829 18.792 20.0311 19.1089 20.5646 18.9662C21.6409 18.6785 22.4604 18.1447 22.8168 17.1694C23.0611 16.5014 23.0611 15.7383 22.8168 15.0703C22.4581 14.0921 21.6295 13.5541 20.5567 13.2767ZM9.9995 14.0002C5.24257 14.0002 2 15.2974 2 18.0002C2 20.703 5.24257 22.0002 9.9995 22.0002C14.7567 22.0002 18 20.7029 18 18.0002C18 15.3562 14.8962 14.0572 10.3076 14.002L9.9995 14.0002ZM9.9995 16.0002C13.7432 16.0002 16 16.9029 16 18.0002C16 19.0975 13.7432 20.0002 9.9995 20.0002C6.25607 20.0002 4 19.0976 4 18.0002C4 16.9027 6.25607 16.0002 9.9995 16.0002Z" fill="#391484"/>
<g opacity="0.5">
<path fill-rule="evenodd" clip-rule="evenodd" d="M9.99954 2C7.22699 2 5 4.22733 5 6.99953C5 9.77248 7.22681 12 9.99954 12C12.7724 12 15 9.77238 15 6.99953C15 4.22744 12.7722 2 9.99954 2ZM9.99954 4C11.6677 4 13 5.33208 13 6.99953C13 8.66781 11.6678 10 9.99954 10C8.33152 10 7 8.66806 7 6.99953C7 5.33183 8.33163 4 9.99954 4ZM21 7.00002C21 4.79141 19.209 3 17 3C16.4477 3 16 3.44772 16 4C16 4.55228 16.4477 5 17 5C18.1043 5 19 5.89588 19 7.00002C19 8.10469 18.1047 9 17 9L16.8834 9.00673C16.386 9.06449 16 9.48716 16 10C16 10.5523 16.4477 11 17 11C19.2093 11 21 9.20927 21 7.00002Z" fill="#391484"/>
</g>
</svg>
