<svg width="72" height="72" viewBox="0 0 72 72" fill="none" xmlns="http://www.w3.org/2000/svg">
<g clip-path="url(#clip0_1_946)">
<rect x="1" y="1" width="70" height="70" rx="15" stroke="#E7E5EA" stroke-width="2"/>
<path fill-rule="evenodd" clip-rule="evenodd" d="M43.998 38H28C26.8954 38 26 38.8954 26 40V41C26 42.6569 27.3431 44 29 44H42.9919C44.6486 44 45.9926 42.6587 45.9959 41.002L45.998 40.001C45.998 38.8954 45.1025 38 43.998 38ZM28 40H43.998L43.9959 40.998C43.9948 41.5517 43.5456 42 42.9919 42H29C28.4477 42 28 41.5523 28 41V40Z" fill="#391484"/>
<g opacity="0.5">
<path fill-rule="evenodd" clip-rule="evenodd" d="M38.9989 28L33 28C30.2386 28 28 30.2386 28 33V38C28 39.1046 28.8954 40 30 40H41.9937L42.1429 39.9944C43.1775 39.9171 43.9925 39.0548 43.9943 38.0018L43.997 33.006L44 32.9975C44 30.2354 41.7605 27.9968 38.9989 28ZM39.0011 30L39.1773 30.0049C40.6929 30.0911 41.9071 31.3047 41.9949 32.8212L41.9975 32.9994L41.9925 38H30V33C30 31.3431 31.3431 30 33 30L39.0011 30Z" fill="#391484"/>
</g>
</g>
<defs>
<clipPath id="clip0_1_946">
<rect width="72" height="72" fill="white"/>
</clipPath>
</defs>
</svg>
