<svg width="48" height="48" viewBox="0 0 48 48" fill="none" xmlns="http://www.w3.org/2000/svg">
<path fill-rule="evenodd" clip-rule="evenodd" d="M24 14C18.4772 14 14 18.4772 14 24C14 29.5228 18.4772 34 24 34C29.5228 34 34 29.5228 34 24C34 18.4772 29.5228 14 24 14ZM24 18C27.3137 18 30 20.6863 30 24C30 27.3137 27.3137 30 24 30C20.6863 30 18 27.3137 18 24C18 20.6863 20.6863 18 24 18Z" fill="#391484"/>
<g opacity="0.5">
<path fill-rule="evenodd" clip-rule="evenodd" d="M28 2H20C10.0589 2 2 10.0589 2 20V28C2 37.9411 10.0589 46 20 46H28C37.9411 46 46 37.9411 46 28V20C46 10.0589 37.9411 2 28 2ZM20 6H28C35.732 6 42 12.268 42 20V28C42 35.732 35.732 42 28 42H20C12.268 42 6 35.732 6 28V20C6 12.268 12.268 6 20 6ZM33.9994 16C35.1035 16 36 15.1038 36 14C36 12.8962 35.1035 12 33.9994 12C32.8954 12 32 12.8962 32 14C32 15.1038 32.8954 16 33.9994 16Z" fill="#391484"/>
</g>
</svg>
