<svg width="48" height="30" viewBox="0 0 48 30" fill="none" xmlns="http://www.w3.org/2000/svg">
    <path fill-rule="evenodd" clip-rule="evenodd"
        d="M9.51 30C11.04 30 12.45 29.13 13.11 27.78L17.37 19.26C17.79 18.42 18 17.52 18 16.59V3C18 1.35 16.65 0 15 0H3C1.35 0 0 1.35 0 3V15C0 16.65 1.35 18 3 18H9L5.91 24.18C4.56 26.85 6.51 30 9.51 30ZM39.51 30C41.04 30 42.45 29.13 43.11 27.78L47.37 19.26C47.79 18.42 48 17.52 48 16.59V3C48 1.35 46.65 0 45 0H33C31.35 0 30 1.35 30 3V15C30 16.65 31.35 18 33 18H39L35.91 24.18C34.56 26.85 36.51 30 39.51 30Z"
        fill="#E7E5EA" />
</svg>